<mxfile host="Electron" modified="2024-03-11T15:05:56.990Z" agent="Mozilla/5.0 (Windows NT 10.0; Win64; x64) AppleWebKit/537.36 (KHTML, like Gecko) draw.io/21.6.8 Chrome/114.0.5735.289 Electron/25.5.0 Safari/537.36" etag="Ggidqm1yDtwX0tjNWHXg" version="21.6.8" type="device">
  <diagram id="C5RBs43oDa-KdzZeNtuy" name="Page-1">
    <mxGraphModel dx="2074" dy="1205" grid="1" gridSize="10" guides="1" tooltips="1" connect="1" arrows="1" fold="1" page="0" pageScale="1" pageWidth="827" pageHeight="1169" math="0" shadow="0">
      <root>
        <mxCell id="WIyWlLk6GJQsqaUBKTNV-0" />
        <mxCell id="WIyWlLk6GJQsqaUBKTNV-1" parent="WIyWlLk6GJQsqaUBKTNV-0" />
        <mxCell id="cM0Dw6OtNcPGOJwDaQmD-3" value="PersonalInfo" style="swimlane;fontStyle=0;childLayout=stackLayout;horizontal=1;startSize=30;horizontalStack=0;resizeParent=1;resizeParentMax=0;resizeLast=0;collapsible=1;marginBottom=0;whiteSpace=wrap;html=1;" vertex="1" parent="WIyWlLk6GJQsqaUBKTNV-1">
          <mxGeometry x="720" y="40" width="160" height="180" as="geometry" />
        </mxCell>
        <mxCell id="cM0Dw6OtNcPGOJwDaQmD-4" value="+ FirstName: string" style="text;strokeColor=none;fillColor=none;align=left;verticalAlign=middle;spacingLeft=4;spacingRight=4;overflow=hidden;points=[[0,0.5],[1,0.5]];portConstraint=eastwest;rotatable=0;whiteSpace=wrap;html=1;" vertex="1" parent="cM0Dw6OtNcPGOJwDaQmD-3">
          <mxGeometry y="30" width="160" height="30" as="geometry" />
        </mxCell>
        <mxCell id="cM0Dw6OtNcPGOJwDaQmD-5" value="+ MiddleName: string" style="text;strokeColor=none;fillColor=none;align=left;verticalAlign=middle;spacingLeft=4;spacingRight=4;overflow=hidden;points=[[0,0.5],[1,0.5]];portConstraint=eastwest;rotatable=0;whiteSpace=wrap;html=1;" vertex="1" parent="cM0Dw6OtNcPGOJwDaQmD-3">
          <mxGeometry y="60" width="160" height="30" as="geometry" />
        </mxCell>
        <mxCell id="cM0Dw6OtNcPGOJwDaQmD-6" value="+ LastName: string" style="text;strokeColor=none;fillColor=none;align=left;verticalAlign=middle;spacingLeft=4;spacingRight=4;overflow=hidden;points=[[0,0.5],[1,0.5]];portConstraint=eastwest;rotatable=0;whiteSpace=wrap;html=1;" vertex="1" parent="cM0Dw6OtNcPGOJwDaQmD-3">
          <mxGeometry y="90" width="160" height="30" as="geometry" />
        </mxCell>
        <mxCell id="cM0Dw6OtNcPGOJwDaQmD-7" value="+ Sex: Sex" style="text;strokeColor=none;fillColor=none;align=left;verticalAlign=middle;spacingLeft=4;spacingRight=4;overflow=hidden;points=[[0,0.5],[1,0.5]];portConstraint=eastwest;rotatable=0;whiteSpace=wrap;html=1;" vertex="1" parent="cM0Dw6OtNcPGOJwDaQmD-3">
          <mxGeometry y="120" width="160" height="30" as="geometry" />
        </mxCell>
        <mxCell id="cM0Dw6OtNcPGOJwDaQmD-8" value="+ Birthday: DateTime" style="text;strokeColor=none;fillColor=none;align=left;verticalAlign=middle;spacingLeft=4;spacingRight=4;overflow=hidden;points=[[0,0.5],[1,0.5]];portConstraint=eastwest;rotatable=0;whiteSpace=wrap;html=1;" vertex="1" parent="cM0Dw6OtNcPGOJwDaQmD-3">
          <mxGeometry y="150" width="160" height="30" as="geometry" />
        </mxCell>
        <mxCell id="cM0Dw6OtNcPGOJwDaQmD-10" value="&lt;font style=&quot;font-size: 8px;&quot;&gt;&amp;lt;&amp;lt;Enum&amp;gt;&amp;gt;&lt;/font&gt;&lt;br&gt;Sex" style="swimlane;fontStyle=0;childLayout=stackLayout;horizontal=1;startSize=30;horizontalStack=0;resizeParent=1;resizeParentMax=0;resizeLast=0;collapsible=1;marginBottom=0;whiteSpace=wrap;html=1;" vertex="1" parent="WIyWlLk6GJQsqaUBKTNV-1">
          <mxGeometry x="960" y="40" width="120" height="90" as="geometry" />
        </mxCell>
        <mxCell id="cM0Dw6OtNcPGOJwDaQmD-11" value="Male" style="text;strokeColor=none;fillColor=none;align=left;verticalAlign=middle;spacingLeft=4;spacingRight=4;overflow=hidden;points=[[0,0.5],[1,0.5]];portConstraint=eastwest;rotatable=0;whiteSpace=wrap;html=1;" vertex="1" parent="cM0Dw6OtNcPGOJwDaQmD-10">
          <mxGeometry y="30" width="120" height="30" as="geometry" />
        </mxCell>
        <mxCell id="cM0Dw6OtNcPGOJwDaQmD-12" value="Female" style="text;strokeColor=none;fillColor=none;align=left;verticalAlign=middle;spacingLeft=4;spacingRight=4;overflow=hidden;points=[[0,0.5],[1,0.5]];portConstraint=eastwest;rotatable=0;whiteSpace=wrap;html=1;" vertex="1" parent="cM0Dw6OtNcPGOJwDaQmD-10">
          <mxGeometry y="60" width="120" height="30" as="geometry" />
        </mxCell>
        <mxCell id="cM0Dw6OtNcPGOJwDaQmD-15" value="IDocument" style="swimlane;fontStyle=0;childLayout=stackLayout;horizontal=1;startSize=30;horizontalStack=0;resizeParent=1;resizeParentMax=0;resizeLast=0;collapsible=1;marginBottom=0;whiteSpace=wrap;html=1;" vertex="1" parent="WIyWlLk6GJQsqaUBKTNV-1">
          <mxGeometry x="440" y="40" width="200" height="150" as="geometry" />
        </mxCell>
        <mxCell id="cM0Dw6OtNcPGOJwDaQmD-16" value="+ PersonalInfo: PersonalInfo" style="text;strokeColor=none;fillColor=none;align=left;verticalAlign=middle;spacingLeft=4;spacingRight=4;overflow=hidden;points=[[0,0.5],[1,0.5]];portConstraint=eastwest;rotatable=0;whiteSpace=wrap;html=1;" vertex="1" parent="cM0Dw6OtNcPGOJwDaQmD-15">
          <mxGeometry y="30" width="200" height="30" as="geometry" />
        </mxCell>
        <mxCell id="cM0Dw6OtNcPGOJwDaQmD-17" value="+ Series: string" style="text;strokeColor=none;fillColor=none;align=left;verticalAlign=middle;spacingLeft=4;spacingRight=4;overflow=hidden;points=[[0,0.5],[1,0.5]];portConstraint=eastwest;rotatable=0;whiteSpace=wrap;html=1;" vertex="1" parent="cM0Dw6OtNcPGOJwDaQmD-15">
          <mxGeometry y="60" width="200" height="30" as="geometry" />
        </mxCell>
        <mxCell id="cM0Dw6OtNcPGOJwDaQmD-18" value="+ Number: int" style="text;strokeColor=none;fillColor=none;align=left;verticalAlign=middle;spacingLeft=4;spacingRight=4;overflow=hidden;points=[[0,0.5],[1,0.5]];portConstraint=eastwest;rotatable=0;whiteSpace=wrap;html=1;" vertex="1" parent="cM0Dw6OtNcPGOJwDaQmD-15">
          <mxGeometry y="90" width="200" height="30" as="geometry" />
        </mxCell>
        <mxCell id="cM0Dw6OtNcPGOJwDaQmD-19" value="+ SeriesWithNumber: string" style="text;strokeColor=none;fillColor=none;align=left;verticalAlign=middle;spacingLeft=4;spacingRight=4;overflow=hidden;points=[[0,0.5],[1,0.5]];portConstraint=eastwest;rotatable=0;whiteSpace=wrap;html=1;" vertex="1" parent="cM0Dw6OtNcPGOJwDaQmD-15">
          <mxGeometry y="120" width="200" height="30" as="geometry" />
        </mxCell>
        <mxCell id="cM0Dw6OtNcPGOJwDaQmD-139" style="edgeStyle=orthogonalEdgeStyle;rounded=0;orthogonalLoop=1;jettySize=auto;html=1;exitX=0.5;exitY=0;exitDx=0;exitDy=0;endArrow=block;endFill=0;" edge="1" parent="WIyWlLk6GJQsqaUBKTNV-1" source="cM0Dw6OtNcPGOJwDaQmD-20" target="cM0Dw6OtNcPGOJwDaQmD-15">
          <mxGeometry relative="1" as="geometry" />
        </mxCell>
        <mxCell id="cM0Dw6OtNcPGOJwDaQmD-163" style="edgeStyle=orthogonalEdgeStyle;rounded=0;orthogonalLoop=1;jettySize=auto;html=1;" edge="1" parent="WIyWlLk6GJQsqaUBKTNV-1" source="cM0Dw6OtNcPGOJwDaQmD-20" target="cM0Dw6OtNcPGOJwDaQmD-88">
          <mxGeometry relative="1" as="geometry" />
        </mxCell>
        <mxCell id="cM0Dw6OtNcPGOJwDaQmD-20" value="IDisplayableDocument" style="swimlane;fontStyle=0;childLayout=stackLayout;horizontal=1;startSize=30;horizontalStack=0;resizeParent=1;resizeParentMax=0;resizeLast=0;collapsible=1;marginBottom=0;whiteSpace=wrap;html=1;" vertex="1" parent="WIyWlLk6GJQsqaUBKTNV-1">
          <mxGeometry x="440" y="240" width="200" height="150" as="geometry" />
        </mxCell>
        <mxCell id="cM0Dw6OtNcPGOJwDaQmD-21" value="+ ShowDocument(): void" style="text;strokeColor=none;fillColor=none;align=left;verticalAlign=middle;spacingLeft=4;spacingRight=4;overflow=hidden;points=[[0,0.5],[1,0.5]];portConstraint=eastwest;rotatable=0;whiteSpace=wrap;html=1;" vertex="1" parent="cM0Dw6OtNcPGOJwDaQmD-20">
          <mxGeometry y="30" width="200" height="30" as="geometry" />
        </mxCell>
        <mxCell id="cM0Dw6OtNcPGOJwDaQmD-22" value="+ HideDocument(): void" style="text;strokeColor=none;fillColor=none;align=left;verticalAlign=middle;spacingLeft=4;spacingRight=4;overflow=hidden;points=[[0,0.5],[1,0.5]];portConstraint=eastwest;rotatable=0;whiteSpace=wrap;html=1;" vertex="1" parent="cM0Dw6OtNcPGOJwDaQmD-20">
          <mxGeometry y="60" width="200" height="30" as="geometry" />
        </mxCell>
        <mxCell id="cM0Dw6OtNcPGOJwDaQmD-23" value="+ ShowInfo(): void" style="text;strokeColor=none;fillColor=none;align=left;verticalAlign=middle;spacingLeft=4;spacingRight=4;overflow=hidden;points=[[0,0.5],[1,0.5]];portConstraint=eastwest;rotatable=0;whiteSpace=wrap;html=1;" vertex="1" parent="cM0Dw6OtNcPGOJwDaQmD-20">
          <mxGeometry y="90" width="200" height="30" as="geometry" />
        </mxCell>
        <mxCell id="cM0Dw6OtNcPGOJwDaQmD-24" value="+ HideInfo(): void" style="text;strokeColor=none;fillColor=none;align=left;verticalAlign=middle;spacingLeft=4;spacingRight=4;overflow=hidden;points=[[0,0.5],[1,0.5]];portConstraint=eastwest;rotatable=0;whiteSpace=wrap;html=1;" vertex="1" parent="cM0Dw6OtNcPGOJwDaQmD-20">
          <mxGeometry y="120" width="200" height="30" as="geometry" />
        </mxCell>
        <mxCell id="cM0Dw6OtNcPGOJwDaQmD-25" value="&lt;font style=&quot;font-size: 8px;&quot;&gt;&amp;lt;&amp;lt;Enum&amp;gt;&amp;gt;&lt;/font&gt;&lt;br&gt;EnrollAbility" style="swimlane;fontStyle=0;childLayout=stackLayout;horizontal=1;startSize=30;horizontalStack=0;resizeParent=1;resizeParentMax=0;resizeLast=0;collapsible=1;marginBottom=0;whiteSpace=wrap;html=1;" vertex="1" parent="WIyWlLk6GJQsqaUBKTNV-1">
          <mxGeometry x="880" y="760" width="160" height="120" as="geometry" />
        </mxCell>
        <mxCell id="cM0Dw6OtNcPGOJwDaQmD-27" value="Able" style="text;strokeColor=none;fillColor=none;align=left;verticalAlign=middle;spacingLeft=4;spacingRight=4;overflow=hidden;points=[[0,0.5],[1,0.5]];portConstraint=eastwest;rotatable=0;whiteSpace=wrap;html=1;" vertex="1" parent="cM0Dw6OtNcPGOJwDaQmD-25">
          <mxGeometry y="30" width="160" height="30" as="geometry" />
        </mxCell>
        <mxCell id="cM0Dw6OtNcPGOJwDaQmD-28" value="PariallyAble" style="text;strokeColor=none;fillColor=none;align=left;verticalAlign=middle;spacingLeft=4;spacingRight=4;overflow=hidden;points=[[0,0.5],[1,0.5]];portConstraint=eastwest;rotatable=0;whiteSpace=wrap;html=1;" vertex="1" parent="cM0Dw6OtNcPGOJwDaQmD-25">
          <mxGeometry y="60" width="160" height="30" as="geometry" />
        </mxCell>
        <mxCell id="cM0Dw6OtNcPGOJwDaQmD-29" value="Unable" style="text;strokeColor=none;fillColor=none;align=left;verticalAlign=middle;spacingLeft=4;spacingRight=4;overflow=hidden;points=[[0,0.5],[1,0.5]];portConstraint=eastwest;rotatable=0;whiteSpace=wrap;html=1;" vertex="1" parent="cM0Dw6OtNcPGOJwDaQmD-25">
          <mxGeometry y="90" width="160" height="30" as="geometry" />
        </mxCell>
        <mxCell id="cM0Dw6OtNcPGOJwDaQmD-30" value="&lt;font style=&quot;font-size: 8px;&quot;&gt;&amp;lt;&amp;lt;Enum&amp;gt;&amp;gt;&lt;/font&gt;&lt;br&gt;VehicleCategory&lt;br&gt;" style="swimlane;fontStyle=0;childLayout=stackLayout;horizontal=1;startSize=30;horizontalStack=0;resizeParent=1;resizeParentMax=0;resizeLast=0;collapsible=1;marginBottom=0;whiteSpace=wrap;html=1;" vertex="1" parent="WIyWlLk6GJQsqaUBKTNV-1">
          <mxGeometry x="1440" y="520" width="120" height="480" as="geometry" />
        </mxCell>
        <mxCell id="cM0Dw6OtNcPGOJwDaQmD-31" value="A1" style="text;strokeColor=none;fillColor=none;align=left;verticalAlign=middle;spacingLeft=4;spacingRight=4;overflow=hidden;points=[[0,0.5],[1,0.5]];portConstraint=eastwest;rotatable=0;whiteSpace=wrap;html=1;" vertex="1" parent="cM0Dw6OtNcPGOJwDaQmD-30">
          <mxGeometry y="30" width="120" height="30" as="geometry" />
        </mxCell>
        <mxCell id="cM0Dw6OtNcPGOJwDaQmD-34" value="A" style="text;strokeColor=none;fillColor=none;align=left;verticalAlign=middle;spacingLeft=4;spacingRight=4;overflow=hidden;points=[[0,0.5],[1,0.5]];portConstraint=eastwest;rotatable=0;whiteSpace=wrap;html=1;" vertex="1" parent="cM0Dw6OtNcPGOJwDaQmD-30">
          <mxGeometry y="60" width="120" height="30" as="geometry" />
        </mxCell>
        <mxCell id="cM0Dw6OtNcPGOJwDaQmD-35" value="B1" style="text;strokeColor=none;fillColor=none;align=left;verticalAlign=middle;spacingLeft=4;spacingRight=4;overflow=hidden;points=[[0,0.5],[1,0.5]];portConstraint=eastwest;rotatable=0;whiteSpace=wrap;html=1;" vertex="1" parent="cM0Dw6OtNcPGOJwDaQmD-30">
          <mxGeometry y="90" width="120" height="30" as="geometry" />
        </mxCell>
        <mxCell id="cM0Dw6OtNcPGOJwDaQmD-36" value="B" style="text;strokeColor=none;fillColor=none;align=left;verticalAlign=middle;spacingLeft=4;spacingRight=4;overflow=hidden;points=[[0,0.5],[1,0.5]];portConstraint=eastwest;rotatable=0;whiteSpace=wrap;html=1;" vertex="1" parent="cM0Dw6OtNcPGOJwDaQmD-30">
          <mxGeometry y="120" width="120" height="30" as="geometry" />
        </mxCell>
        <mxCell id="cM0Dw6OtNcPGOJwDaQmD-37" value="C1" style="text;strokeColor=none;fillColor=none;align=left;verticalAlign=middle;spacingLeft=4;spacingRight=4;overflow=hidden;points=[[0,0.5],[1,0.5]];portConstraint=eastwest;rotatable=0;whiteSpace=wrap;html=1;" vertex="1" parent="cM0Dw6OtNcPGOJwDaQmD-30">
          <mxGeometry y="150" width="120" height="30" as="geometry" />
        </mxCell>
        <mxCell id="cM0Dw6OtNcPGOJwDaQmD-38" value="C" style="text;strokeColor=none;fillColor=none;align=left;verticalAlign=middle;spacingLeft=4;spacingRight=4;overflow=hidden;points=[[0,0.5],[1,0.5]];portConstraint=eastwest;rotatable=0;whiteSpace=wrap;html=1;" vertex="1" parent="cM0Dw6OtNcPGOJwDaQmD-30">
          <mxGeometry y="180" width="120" height="30" as="geometry" />
        </mxCell>
        <mxCell id="cM0Dw6OtNcPGOJwDaQmD-39" value="D1" style="text;strokeColor=none;fillColor=none;align=left;verticalAlign=middle;spacingLeft=4;spacingRight=4;overflow=hidden;points=[[0,0.5],[1,0.5]];portConstraint=eastwest;rotatable=0;whiteSpace=wrap;html=1;" vertex="1" parent="cM0Dw6OtNcPGOJwDaQmD-30">
          <mxGeometry y="210" width="120" height="30" as="geometry" />
        </mxCell>
        <mxCell id="cM0Dw6OtNcPGOJwDaQmD-40" value="D" style="text;strokeColor=none;fillColor=none;align=left;verticalAlign=middle;spacingLeft=4;spacingRight=4;overflow=hidden;points=[[0,0.5],[1,0.5]];portConstraint=eastwest;rotatable=0;whiteSpace=wrap;html=1;" vertex="1" parent="cM0Dw6OtNcPGOJwDaQmD-30">
          <mxGeometry y="240" width="120" height="30" as="geometry" />
        </mxCell>
        <mxCell id="cM0Dw6OtNcPGOJwDaQmD-41" value="BE" style="text;strokeColor=none;fillColor=none;align=left;verticalAlign=middle;spacingLeft=4;spacingRight=4;overflow=hidden;points=[[0,0.5],[1,0.5]];portConstraint=eastwest;rotatable=0;whiteSpace=wrap;html=1;" vertex="1" parent="cM0Dw6OtNcPGOJwDaQmD-30">
          <mxGeometry y="270" width="120" height="30" as="geometry" />
        </mxCell>
        <mxCell id="cM0Dw6OtNcPGOJwDaQmD-42" value="C1E" style="text;strokeColor=none;fillColor=none;align=left;verticalAlign=middle;spacingLeft=4;spacingRight=4;overflow=hidden;points=[[0,0.5],[1,0.5]];portConstraint=eastwest;rotatable=0;whiteSpace=wrap;html=1;" vertex="1" parent="cM0Dw6OtNcPGOJwDaQmD-30">
          <mxGeometry y="300" width="120" height="30" as="geometry" />
        </mxCell>
        <mxCell id="cM0Dw6OtNcPGOJwDaQmD-155" value="CE" style="text;strokeColor=none;fillColor=none;align=left;verticalAlign=middle;spacingLeft=4;spacingRight=4;overflow=hidden;points=[[0,0.5],[1,0.5]];portConstraint=eastwest;rotatable=0;whiteSpace=wrap;html=1;" vertex="1" parent="cM0Dw6OtNcPGOJwDaQmD-30">
          <mxGeometry y="330" width="120" height="30" as="geometry" />
        </mxCell>
        <mxCell id="cM0Dw6OtNcPGOJwDaQmD-43" value="CE" style="text;strokeColor=none;fillColor=none;align=left;verticalAlign=middle;spacingLeft=4;spacingRight=4;overflow=hidden;points=[[0,0.5],[1,0.5]];portConstraint=eastwest;rotatable=0;whiteSpace=wrap;html=1;" vertex="1" parent="cM0Dw6OtNcPGOJwDaQmD-30">
          <mxGeometry y="360" width="120" height="30" as="geometry" />
        </mxCell>
        <mxCell id="cM0Dw6OtNcPGOJwDaQmD-44" value="D1E" style="text;strokeColor=none;fillColor=none;align=left;verticalAlign=middle;spacingLeft=4;spacingRight=4;overflow=hidden;points=[[0,0.5],[1,0.5]];portConstraint=eastwest;rotatable=0;whiteSpace=wrap;html=1;" vertex="1" parent="cM0Dw6OtNcPGOJwDaQmD-30">
          <mxGeometry y="390" width="120" height="30" as="geometry" />
        </mxCell>
        <mxCell id="cM0Dw6OtNcPGOJwDaQmD-45" value="DE" style="text;strokeColor=none;fillColor=none;align=left;verticalAlign=middle;spacingLeft=4;spacingRight=4;overflow=hidden;points=[[0,0.5],[1,0.5]];portConstraint=eastwest;rotatable=0;whiteSpace=wrap;html=1;" vertex="1" parent="cM0Dw6OtNcPGOJwDaQmD-30">
          <mxGeometry y="420" width="120" height="30" as="geometry" />
        </mxCell>
        <mxCell id="cM0Dw6OtNcPGOJwDaQmD-46" value="T" style="text;strokeColor=none;fillColor=none;align=left;verticalAlign=middle;spacingLeft=4;spacingRight=4;overflow=hidden;points=[[0,0.5],[1,0.5]];portConstraint=eastwest;rotatable=0;whiteSpace=wrap;html=1;" vertex="1" parent="cM0Dw6OtNcPGOJwDaQmD-30">
          <mxGeometry y="450" width="120" height="30" as="geometry" />
        </mxCell>
        <mxCell id="cM0Dw6OtNcPGOJwDaQmD-47" value="IPhotographable" style="swimlane;fontStyle=0;childLayout=stackLayout;horizontal=1;startSize=30;horizontalStack=0;resizeParent=1;resizeParentMax=0;resizeLast=0;collapsible=1;marginBottom=0;whiteSpace=wrap;html=1;" vertex="1" parent="WIyWlLk6GJQsqaUBKTNV-1">
          <mxGeometry x="440" y="440" width="200" height="60" as="geometry" />
        </mxCell>
        <mxCell id="cM0Dw6OtNcPGOJwDaQmD-48" value="+ Photo: string" style="text;strokeColor=none;fillColor=none;align=left;verticalAlign=middle;spacingLeft=4;spacingRight=4;overflow=hidden;points=[[0,0.5],[1,0.5]];portConstraint=eastwest;rotatable=0;whiteSpace=wrap;html=1;" vertex="1" parent="cM0Dw6OtNcPGOJwDaQmD-47">
          <mxGeometry y="30" width="200" height="30" as="geometry" />
        </mxCell>
        <mxCell id="cM0Dw6OtNcPGOJwDaQmD-52" value="IQRСodeGeneratable" style="swimlane;fontStyle=0;childLayout=stackLayout;horizontal=1;startSize=30;horizontalStack=0;resizeParent=1;resizeParentMax=0;resizeLast=0;collapsible=1;marginBottom=0;whiteSpace=wrap;html=1;" vertex="1" parent="WIyWlLk6GJQsqaUBKTNV-1">
          <mxGeometry x="440" y="560" width="200" height="60" as="geometry" />
        </mxCell>
        <mxCell id="cM0Dw6OtNcPGOJwDaQmD-53" value="+ GenerateQR(): void" style="text;strokeColor=none;fillColor=none;align=left;verticalAlign=middle;spacingLeft=4;spacingRight=4;overflow=hidden;points=[[0,0.5],[1,0.5]];portConstraint=eastwest;rotatable=0;whiteSpace=wrap;html=1;" vertex="1" parent="cM0Dw6OtNcPGOJwDaQmD-52">
          <mxGeometry y="30" width="200" height="30" as="geometry" />
        </mxCell>
        <mxCell id="cM0Dw6OtNcPGOJwDaQmD-129" style="edgeStyle=orthogonalEdgeStyle;rounded=0;orthogonalLoop=1;jettySize=auto;html=1;exitX=0.5;exitY=0;exitDx=0;exitDy=0;entryX=1;entryY=0.25;entryDx=0;entryDy=0;dashed=1;endArrow=block;endFill=0;dashPattern=12 12;" edge="1" parent="WIyWlLk6GJQsqaUBKTNV-1" source="cM0Dw6OtNcPGOJwDaQmD-54" target="cM0Dw6OtNcPGOJwDaQmD-20">
          <mxGeometry relative="1" as="geometry" />
        </mxCell>
        <mxCell id="cM0Dw6OtNcPGOJwDaQmD-132" style="edgeStyle=orthogonalEdgeStyle;rounded=0;orthogonalLoop=1;jettySize=auto;html=1;exitX=0.5;exitY=0;exitDx=0;exitDy=0;entryX=1;entryY=0.25;entryDx=0;entryDy=0;dashed=1;endArrow=block;endFill=0;dashPattern=12 12;" edge="1" parent="WIyWlLk6GJQsqaUBKTNV-1" source="cM0Dw6OtNcPGOJwDaQmD-54" target="cM0Dw6OtNcPGOJwDaQmD-47">
          <mxGeometry relative="1" as="geometry" />
        </mxCell>
        <mxCell id="cM0Dw6OtNcPGOJwDaQmD-135" style="edgeStyle=orthogonalEdgeStyle;rounded=0;orthogonalLoop=1;jettySize=auto;html=1;exitX=0.5;exitY=0;exitDx=0;exitDy=0;entryX=1;entryY=0.25;entryDx=0;entryDy=0;dashed=1;endArrow=block;endFill=0;dashPattern=12 12;" edge="1" parent="WIyWlLk6GJQsqaUBKTNV-1" source="cM0Dw6OtNcPGOJwDaQmD-54" target="cM0Dw6OtNcPGOJwDaQmD-52">
          <mxGeometry relative="1" as="geometry" />
        </mxCell>
        <mxCell id="cM0Dw6OtNcPGOJwDaQmD-54" value="Passport" style="swimlane;fontStyle=0;childLayout=stackLayout;horizontal=1;startSize=30;horizontalStack=0;resizeParent=1;resizeParentMax=0;resizeLast=0;collapsible=1;marginBottom=0;whiteSpace=wrap;html=1;" vertex="1" parent="WIyWlLk6GJQsqaUBKTNV-1">
          <mxGeometry x="680" y="640" width="160" height="128" as="geometry" />
        </mxCell>
        <mxCell id="cM0Dw6OtNcPGOJwDaQmD-55" value="+ RNTRC: string" style="text;strokeColor=none;fillColor=none;align=left;verticalAlign=middle;spacingLeft=4;spacingRight=4;overflow=hidden;points=[[0,0.5],[1,0.5]];portConstraint=eastwest;rotatable=0;whiteSpace=wrap;html=1;" vertex="1" parent="cM0Dw6OtNcPGOJwDaQmD-54">
          <mxGeometry y="30" width="160" height="30" as="geometry" />
        </mxCell>
        <mxCell id="cM0Dw6OtNcPGOJwDaQmD-56" value="+&amp;nbsp;DateOfExpiry&lt;span style=&quot;background-color: initial;&quot;&gt;: DateTime&lt;/span&gt;" style="text;strokeColor=none;fillColor=none;align=left;verticalAlign=middle;spacingLeft=4;spacingRight=4;overflow=hidden;points=[[0,0.5],[1,0.5]];portConstraint=eastwest;rotatable=0;whiteSpace=wrap;html=1;" vertex="1" parent="cM0Dw6OtNcPGOJwDaQmD-54">
          <mxGeometry y="60" width="160" height="30" as="geometry" />
        </mxCell>
        <mxCell id="cM0Dw6OtNcPGOJwDaQmD-72" value="" style="line;strokeWidth=1;fillColor=none;align=left;verticalAlign=middle;spacingTop=-1;spacingLeft=3;spacingRight=3;rotatable=0;labelPosition=right;points=[];portConstraint=eastwest;strokeColor=inherit;" vertex="1" parent="cM0Dw6OtNcPGOJwDaQmD-54">
          <mxGeometry y="90" width="160" height="8" as="geometry" />
        </mxCell>
        <mxCell id="cM0Dw6OtNcPGOJwDaQmD-73" value="+&amp;nbsp;CopyRNTRC()&lt;span style=&quot;background-color: initial;&quot;&gt;: void&lt;/span&gt;" style="text;strokeColor=none;fillColor=none;align=left;verticalAlign=middle;spacingLeft=4;spacingRight=4;overflow=hidden;points=[[0,0.5],[1,0.5]];portConstraint=eastwest;rotatable=0;whiteSpace=wrap;html=1;" vertex="1" parent="cM0Dw6OtNcPGOJwDaQmD-54">
          <mxGeometry y="98" width="160" height="30" as="geometry" />
        </mxCell>
        <mxCell id="cM0Dw6OtNcPGOJwDaQmD-130" style="edgeStyle=orthogonalEdgeStyle;rounded=0;orthogonalLoop=1;jettySize=auto;html=1;exitX=0.5;exitY=0;exitDx=0;exitDy=0;entryX=1;entryY=0.25;entryDx=0;entryDy=0;dashed=1;endArrow=block;endFill=0;dashPattern=12 12;" edge="1" parent="WIyWlLk6GJQsqaUBKTNV-1" source="cM0Dw6OtNcPGOJwDaQmD-74" target="cM0Dw6OtNcPGOJwDaQmD-20">
          <mxGeometry relative="1" as="geometry" />
        </mxCell>
        <mxCell id="cM0Dw6OtNcPGOJwDaQmD-133" style="edgeStyle=orthogonalEdgeStyle;rounded=0;orthogonalLoop=1;jettySize=auto;html=1;exitX=0.5;exitY=0;exitDx=0;exitDy=0;entryX=1;entryY=0.25;entryDx=0;entryDy=0;dashed=1;endArrow=block;endFill=0;dashPattern=12 12;" edge="1" parent="WIyWlLk6GJQsqaUBKTNV-1" source="cM0Dw6OtNcPGOJwDaQmD-74" target="cM0Dw6OtNcPGOJwDaQmD-47">
          <mxGeometry relative="1" as="geometry" />
        </mxCell>
        <mxCell id="cM0Dw6OtNcPGOJwDaQmD-137" style="edgeStyle=orthogonalEdgeStyle;rounded=0;orthogonalLoop=1;jettySize=auto;html=1;exitX=0.5;exitY=0;exitDx=0;exitDy=0;entryX=1;entryY=0.25;entryDx=0;entryDy=0;dashed=1;endArrow=block;endFill=0;dashPattern=12 12;" edge="1" parent="WIyWlLk6GJQsqaUBKTNV-1" source="cM0Dw6OtNcPGOJwDaQmD-74" target="cM0Dw6OtNcPGOJwDaQmD-52">
          <mxGeometry relative="1" as="geometry" />
        </mxCell>
        <mxCell id="cM0Dw6OtNcPGOJwDaQmD-151" style="edgeStyle=orthogonalEdgeStyle;rounded=0;orthogonalLoop=1;jettySize=auto;html=1;" edge="1" parent="WIyWlLk6GJQsqaUBKTNV-1" source="cM0Dw6OtNcPGOJwDaQmD-74" target="cM0Dw6OtNcPGOJwDaQmD-25">
          <mxGeometry relative="1" as="geometry" />
        </mxCell>
        <mxCell id="cM0Dw6OtNcPGOJwDaQmD-74" value="MilitaryID" style="swimlane;fontStyle=0;childLayout=stackLayout;horizontal=1;startSize=30;horizontalStack=0;resizeParent=1;resizeParentMax=0;resizeLast=0;collapsible=1;marginBottom=0;whiteSpace=wrap;html=1;" vertex="1" parent="WIyWlLk6GJQsqaUBKTNV-1">
          <mxGeometry x="880" y="640" width="160" height="60" as="geometry" />
        </mxCell>
        <mxCell id="cM0Dw6OtNcPGOJwDaQmD-75" value="+ EnrollAbility: EnrollAbility" style="text;strokeColor=none;fillColor=none;align=left;verticalAlign=middle;spacingLeft=4;spacingRight=4;overflow=hidden;points=[[0,0.5],[1,0.5]];portConstraint=eastwest;rotatable=0;whiteSpace=wrap;html=1;" vertex="1" parent="cM0Dw6OtNcPGOJwDaQmD-74">
          <mxGeometry y="30" width="160" height="30" as="geometry" />
        </mxCell>
        <mxCell id="cM0Dw6OtNcPGOJwDaQmD-79" value="DrivingCategoryItem" style="swimlane;fontStyle=0;childLayout=stackLayout;horizontal=1;startSize=30;horizontalStack=0;resizeParent=1;resizeParentMax=0;resizeLast=0;collapsible=1;marginBottom=0;whiteSpace=wrap;html=1;" vertex="1" parent="WIyWlLk6GJQsqaUBKTNV-1">
          <mxGeometry x="1080" y="840" width="280" height="90" as="geometry" />
        </mxCell>
        <mxCell id="cM0Dw6OtNcPGOJwDaQmD-80" value="+ VehicleCategory: VehicleCategory" style="text;strokeColor=none;fillColor=none;align=left;verticalAlign=middle;spacingLeft=4;spacingRight=4;overflow=hidden;points=[[0,0.5],[1,0.5]];portConstraint=eastwest;rotatable=0;whiteSpace=wrap;html=1;" vertex="1" parent="cM0Dw6OtNcPGOJwDaQmD-79">
          <mxGeometry y="30" width="280" height="30" as="geometry" />
        </mxCell>
        <mxCell id="cM0Dw6OtNcPGOJwDaQmD-81" value="+ DateOfExpiry: DateTime" style="text;strokeColor=none;fillColor=none;align=left;verticalAlign=middle;spacingLeft=4;spacingRight=4;overflow=hidden;points=[[0,0.5],[1,0.5]];portConstraint=eastwest;rotatable=0;whiteSpace=wrap;html=1;" vertex="1" parent="cM0Dw6OtNcPGOJwDaQmD-79">
          <mxGeometry y="60" width="280" height="30" as="geometry" />
        </mxCell>
        <mxCell id="cM0Dw6OtNcPGOJwDaQmD-131" style="edgeStyle=orthogonalEdgeStyle;rounded=0;orthogonalLoop=1;jettySize=auto;html=1;exitX=0.5;exitY=0;exitDx=0;exitDy=0;entryX=1;entryY=0.25;entryDx=0;entryDy=0;dashed=1;endArrow=block;endFill=0;dashPattern=12 12;" edge="1" parent="WIyWlLk6GJQsqaUBKTNV-1" source="cM0Dw6OtNcPGOJwDaQmD-82" target="cM0Dw6OtNcPGOJwDaQmD-20">
          <mxGeometry relative="1" as="geometry" />
        </mxCell>
        <mxCell id="cM0Dw6OtNcPGOJwDaQmD-134" style="edgeStyle=orthogonalEdgeStyle;rounded=0;orthogonalLoop=1;jettySize=auto;html=1;exitX=0.5;exitY=0;exitDx=0;exitDy=0;entryX=1;entryY=0.25;entryDx=0;entryDy=0;dashed=1;endArrow=block;endFill=0;dashPattern=12 12;" edge="1" parent="WIyWlLk6GJQsqaUBKTNV-1" source="cM0Dw6OtNcPGOJwDaQmD-82" target="cM0Dw6OtNcPGOJwDaQmD-47">
          <mxGeometry relative="1" as="geometry" />
        </mxCell>
        <mxCell id="cM0Dw6OtNcPGOJwDaQmD-138" style="edgeStyle=orthogonalEdgeStyle;rounded=0;orthogonalLoop=1;jettySize=auto;html=1;exitX=0.5;exitY=0;exitDx=0;exitDy=0;entryX=1;entryY=0.25;entryDx=0;entryDy=0;dashed=1;endArrow=block;endFill=0;dashPattern=12 12;" edge="1" parent="WIyWlLk6GJQsqaUBKTNV-1" source="cM0Dw6OtNcPGOJwDaQmD-82" target="cM0Dw6OtNcPGOJwDaQmD-52">
          <mxGeometry relative="1" as="geometry" />
        </mxCell>
        <mxCell id="cM0Dw6OtNcPGOJwDaQmD-152" style="edgeStyle=orthogonalEdgeStyle;rounded=0;orthogonalLoop=1;jettySize=auto;html=1;entryX=0.5;entryY=0;entryDx=0;entryDy=0;" edge="1" parent="WIyWlLk6GJQsqaUBKTNV-1" source="cM0Dw6OtNcPGOJwDaQmD-82" target="cM0Dw6OtNcPGOJwDaQmD-79">
          <mxGeometry relative="1" as="geometry" />
        </mxCell>
        <mxCell id="cM0Dw6OtNcPGOJwDaQmD-159" style="edgeStyle=orthogonalEdgeStyle;rounded=0;orthogonalLoop=1;jettySize=auto;html=1;" edge="1" parent="WIyWlLk6GJQsqaUBKTNV-1" source="cM0Dw6OtNcPGOJwDaQmD-82" target="cM0Dw6OtNcPGOJwDaQmD-30">
          <mxGeometry relative="1" as="geometry" />
        </mxCell>
        <mxCell id="cM0Dw6OtNcPGOJwDaQmD-82" value="DrivingLicense" style="swimlane;fontStyle=0;childLayout=stackLayout;horizontal=1;startSize=30;horizontalStack=0;resizeParent=1;resizeParentMax=0;resizeLast=0;collapsible=1;marginBottom=0;whiteSpace=wrap;html=1;" vertex="1" parent="WIyWlLk6GJQsqaUBKTNV-1">
          <mxGeometry x="1080" y="640" width="280" height="128" as="geometry" />
        </mxCell>
        <mxCell id="cM0Dw6OtNcPGOJwDaQmD-83" value="+ Categories: List&amp;lt;DrivingCategoryItem&amp;gt;" style="text;strokeColor=none;fillColor=none;align=left;verticalAlign=middle;spacingLeft=4;spacingRight=4;overflow=hidden;points=[[0,0.5],[1,0.5]];portConstraint=eastwest;rotatable=0;whiteSpace=wrap;html=1;" vertex="1" parent="cM0Dw6OtNcPGOJwDaQmD-82">
          <mxGeometry y="30" width="280" height="30" as="geometry" />
        </mxCell>
        <mxCell id="cM0Dw6OtNcPGOJwDaQmD-85" value="" style="line;strokeWidth=1;fillColor=none;align=left;verticalAlign=middle;spacingTop=-1;spacingLeft=3;spacingRight=3;rotatable=0;labelPosition=right;points=[];portConstraint=eastwest;strokeColor=inherit;" vertex="1" parent="cM0Dw6OtNcPGOJwDaQmD-82">
          <mxGeometry y="60" width="280" height="8" as="geometry" />
        </mxCell>
        <mxCell id="cM0Dw6OtNcPGOJwDaQmD-86" value="+ AddCategory(VehicleCategory, DateTime): void" style="text;strokeColor=none;fillColor=none;align=left;verticalAlign=middle;spacingLeft=4;spacingRight=4;overflow=hidden;points=[[0,0.5],[1,0.5]];portConstraint=eastwest;rotatable=0;whiteSpace=wrap;html=1;" vertex="1" parent="cM0Dw6OtNcPGOJwDaQmD-82">
          <mxGeometry y="68" width="280" height="30" as="geometry" />
        </mxCell>
        <mxCell id="cM0Dw6OtNcPGOJwDaQmD-87" value="+ RemoveCategory(VehicleCategory): void" style="text;strokeColor=none;fillColor=none;align=left;verticalAlign=middle;spacingLeft=4;spacingRight=4;overflow=hidden;points=[[0,0.5],[1,0.5]];portConstraint=eastwest;rotatable=0;whiteSpace=wrap;html=1;" vertex="1" parent="cM0Dw6OtNcPGOJwDaQmD-82">
          <mxGeometry y="98" width="280" height="30" as="geometry" />
        </mxCell>
        <mxCell id="cM0Dw6OtNcPGOJwDaQmD-162" style="edgeStyle=orthogonalEdgeStyle;rounded=0;orthogonalLoop=1;jettySize=auto;html=1;" edge="1" parent="WIyWlLk6GJQsqaUBKTNV-1" source="cM0Dw6OtNcPGOJwDaQmD-88" target="cM0Dw6OtNcPGOJwDaQmD-93">
          <mxGeometry relative="1" as="geometry" />
        </mxCell>
        <mxCell id="cM0Dw6OtNcPGOJwDaQmD-88" value="NotDiia" style="swimlane;fontStyle=0;childLayout=stackLayout;horizontal=1;startSize=30;horizontalStack=0;resizeParent=1;resizeParentMax=0;resizeLast=0;collapsible=1;marginBottom=0;whiteSpace=wrap;html=1;" vertex="1" parent="WIyWlLk6GJQsqaUBKTNV-1">
          <mxGeometry x="80" y="280" width="280" height="518" as="geometry" />
        </mxCell>
        <mxCell id="cM0Dw6OtNcPGOJwDaQmD-89" value="+ Documents: List&amp;lt;DocumentListItem&amp;gt;" style="text;strokeColor=none;fillColor=none;align=left;verticalAlign=middle;spacingLeft=4;spacingRight=4;overflow=hidden;points=[[0,0.5],[1,0.5]];portConstraint=eastwest;rotatable=0;whiteSpace=wrap;html=1;" vertex="1" parent="cM0Dw6OtNcPGOJwDaQmD-88">
          <mxGeometry y="30" width="280" height="30" as="geometry" />
        </mxCell>
        <mxCell id="cM0Dw6OtNcPGOJwDaQmD-100" value="+ CurrentIndex: int" style="text;strokeColor=none;fillColor=none;align=left;verticalAlign=middle;spacingLeft=4;spacingRight=4;overflow=hidden;points=[[0,0.5],[1,0.5]];portConstraint=eastwest;rotatable=0;whiteSpace=wrap;html=1;" vertex="1" parent="cM0Dw6OtNcPGOJwDaQmD-88">
          <mxGeometry y="60" width="280" height="30" as="geometry" />
        </mxCell>
        <mxCell id="cM0Dw6OtNcPGOJwDaQmD-101" value="+ CurrentDocument: IDisplayableDocument?" style="text;strokeColor=none;fillColor=none;align=left;verticalAlign=middle;spacingLeft=4;spacingRight=4;overflow=hidden;points=[[0,0.5],[1,0.5]];portConstraint=eastwest;rotatable=0;whiteSpace=wrap;html=1;" vertex="1" parent="cM0Dw6OtNcPGOJwDaQmD-88">
          <mxGeometry y="90" width="280" height="30" as="geometry" />
        </mxCell>
        <mxCell id="cM0Dw6OtNcPGOJwDaQmD-103" value="" style="line;strokeWidth=1;fillColor=none;align=left;verticalAlign=middle;spacingTop=-1;spacingLeft=3;spacingRight=3;rotatable=0;labelPosition=right;points=[];portConstraint=eastwest;strokeColor=inherit;" vertex="1" parent="cM0Dw6OtNcPGOJwDaQmD-88">
          <mxGeometry y="120" width="280" height="8" as="geometry" />
        </mxCell>
        <mxCell id="cM0Dw6OtNcPGOJwDaQmD-104" value="+ NextIndex(int): int" style="text;strokeColor=none;fillColor=none;align=left;verticalAlign=middle;spacingLeft=4;spacingRight=4;overflow=hidden;points=[[0,0.5],[1,0.5]];portConstraint=eastwest;rotatable=0;whiteSpace=wrap;html=1;" vertex="1" parent="cM0Dw6OtNcPGOJwDaQmD-88">
          <mxGeometry y="128" width="280" height="30" as="geometry" />
        </mxCell>
        <mxCell id="cM0Dw6OtNcPGOJwDaQmD-105" value="+ PrevIndex(int): int" style="text;strokeColor=none;fillColor=none;align=left;verticalAlign=middle;spacingLeft=4;spacingRight=4;overflow=hidden;points=[[0,0.5],[1,0.5]];portConstraint=eastwest;rotatable=0;whiteSpace=wrap;html=1;" vertex="1" parent="cM0Dw6OtNcPGOJwDaQmD-88">
          <mxGeometry y="158" width="280" height="30" as="geometry" />
        </mxCell>
        <mxCell id="cM0Dw6OtNcPGOJwDaQmD-106" value="+ NextDocument(): void" style="text;strokeColor=none;fillColor=none;align=left;verticalAlign=middle;spacingLeft=4;spacingRight=4;overflow=hidden;points=[[0,0.5],[1,0.5]];portConstraint=eastwest;rotatable=0;whiteSpace=wrap;html=1;" vertex="1" parent="cM0Dw6OtNcPGOJwDaQmD-88">
          <mxGeometry y="188" width="280" height="30" as="geometry" />
        </mxCell>
        <mxCell id="cM0Dw6OtNcPGOJwDaQmD-108" value="+ PrevDocument(): void" style="text;strokeColor=none;fillColor=none;align=left;verticalAlign=middle;spacingLeft=4;spacingRight=4;overflow=hidden;points=[[0,0.5],[1,0.5]];portConstraint=eastwest;rotatable=0;whiteSpace=wrap;html=1;" vertex="1" parent="cM0Dw6OtNcPGOJwDaQmD-88">
          <mxGeometry y="218" width="280" height="30" as="geometry" />
        </mxCell>
        <mxCell id="cM0Dw6OtNcPGOJwDaQmD-109" value="+ ShiftRight(): void" style="text;strokeColor=none;fillColor=none;align=left;verticalAlign=middle;spacingLeft=4;spacingRight=4;overflow=hidden;points=[[0,0.5],[1,0.5]];portConstraint=eastwest;rotatable=0;whiteSpace=wrap;html=1;" vertex="1" parent="cM0Dw6OtNcPGOJwDaQmD-88">
          <mxGeometry y="248" width="280" height="30" as="geometry" />
        </mxCell>
        <mxCell id="cM0Dw6OtNcPGOJwDaQmD-111" value="+ ShiftLeft(): void" style="text;strokeColor=none;fillColor=none;align=left;verticalAlign=middle;spacingLeft=4;spacingRight=4;overflow=hidden;points=[[0,0.5],[1,0.5]];portConstraint=eastwest;rotatable=0;whiteSpace=wrap;html=1;" vertex="1" parent="cM0Dw6OtNcPGOJwDaQmD-88">
          <mxGeometry y="278" width="280" height="30" as="geometry" />
        </mxCell>
        <mxCell id="cM0Dw6OtNcPGOJwDaQmD-112" value="+ AddDocument(IDisplayableDocument): void" style="text;strokeColor=none;fillColor=none;align=left;verticalAlign=middle;spacingLeft=4;spacingRight=4;overflow=hidden;points=[[0,0.5],[1,0.5]];portConstraint=eastwest;rotatable=0;whiteSpace=wrap;html=1;" vertex="1" parent="cM0Dw6OtNcPGOJwDaQmD-88">
          <mxGeometry y="308" width="280" height="30" as="geometry" />
        </mxCell>
        <mxCell id="cM0Dw6OtNcPGOJwDaQmD-114" value="+ RemoveDocument(IDisplayableDocument): void" style="text;strokeColor=none;fillColor=none;align=left;verticalAlign=middle;spacingLeft=4;spacingRight=4;overflow=hidden;points=[[0,0.5],[1,0.5]];portConstraint=eastwest;rotatable=0;whiteSpace=wrap;html=1;" vertex="1" parent="cM0Dw6OtNcPGOJwDaQmD-88">
          <mxGeometry y="338" width="280" height="30" as="geometry" />
        </mxCell>
        <mxCell id="cM0Dw6OtNcPGOJwDaQmD-115" value="+ ShowDocument(): void" style="text;strokeColor=none;fillColor=none;align=left;verticalAlign=middle;spacingLeft=4;spacingRight=4;overflow=hidden;points=[[0,0.5],[1,0.5]];portConstraint=eastwest;rotatable=0;whiteSpace=wrap;html=1;" vertex="1" parent="cM0Dw6OtNcPGOJwDaQmD-88">
          <mxGeometry y="368" width="280" height="30" as="geometry" />
        </mxCell>
        <mxCell id="cM0Dw6OtNcPGOJwDaQmD-117" value="+ HideDocument(): void" style="text;strokeColor=none;fillColor=none;align=left;verticalAlign=middle;spacingLeft=4;spacingRight=4;overflow=hidden;points=[[0,0.5],[1,0.5]];portConstraint=eastwest;rotatable=0;whiteSpace=wrap;html=1;" vertex="1" parent="cM0Dw6OtNcPGOJwDaQmD-88">
          <mxGeometry y="398" width="280" height="30" as="geometry" />
        </mxCell>
        <mxCell id="cM0Dw6OtNcPGOJwDaQmD-118" value="+ ShowInfo(): void" style="text;strokeColor=none;fillColor=none;align=left;verticalAlign=middle;spacingLeft=4;spacingRight=4;overflow=hidden;points=[[0,0.5],[1,0.5]];portConstraint=eastwest;rotatable=0;whiteSpace=wrap;html=1;" vertex="1" parent="cM0Dw6OtNcPGOJwDaQmD-88">
          <mxGeometry y="428" width="280" height="30" as="geometry" />
        </mxCell>
        <mxCell id="cM0Dw6OtNcPGOJwDaQmD-119" value="+ HideInfo(): void" style="text;strokeColor=none;fillColor=none;align=left;verticalAlign=middle;spacingLeft=4;spacingRight=4;overflow=hidden;points=[[0,0.5],[1,0.5]];portConstraint=eastwest;rotatable=0;whiteSpace=wrap;html=1;" vertex="1" parent="cM0Dw6OtNcPGOJwDaQmD-88">
          <mxGeometry y="458" width="280" height="30" as="geometry" />
        </mxCell>
        <mxCell id="cM0Dw6OtNcPGOJwDaQmD-120" value="+ GenerateQR(): void" style="text;strokeColor=none;fillColor=none;align=left;verticalAlign=middle;spacingLeft=4;spacingRight=4;overflow=hidden;points=[[0,0.5],[1,0.5]];portConstraint=eastwest;rotatable=0;whiteSpace=wrap;html=1;" vertex="1" parent="cM0Dw6OtNcPGOJwDaQmD-88">
          <mxGeometry y="488" width="280" height="30" as="geometry" />
        </mxCell>
        <mxCell id="cM0Dw6OtNcPGOJwDaQmD-93" value="DocumentListItem" style="swimlane;fontStyle=0;childLayout=stackLayout;horizontal=1;startSize=30;horizontalStack=0;resizeParent=1;resizeParentMax=0;resizeLast=0;collapsible=1;marginBottom=0;whiteSpace=wrap;html=1;" vertex="1" parent="WIyWlLk6GJQsqaUBKTNV-1">
          <mxGeometry x="80" y="120" width="280" height="90" as="geometry" />
        </mxCell>
        <mxCell id="cM0Dw6OtNcPGOJwDaQmD-94" value="+ Document:&amp;nbsp;IDisplayableDocument" style="text;strokeColor=none;fillColor=none;align=left;verticalAlign=middle;spacingLeft=4;spacingRight=4;overflow=hidden;points=[[0,0.5],[1,0.5]];portConstraint=eastwest;rotatable=0;whiteSpace=wrap;html=1;" vertex="1" parent="cM0Dw6OtNcPGOJwDaQmD-93">
          <mxGeometry y="30" width="280" height="30" as="geometry" />
        </mxCell>
        <mxCell id="cM0Dw6OtNcPGOJwDaQmD-98" value="+ Position: int" style="text;strokeColor=none;fillColor=none;align=left;verticalAlign=middle;spacingLeft=4;spacingRight=4;overflow=hidden;points=[[0,0.5],[1,0.5]];portConstraint=eastwest;rotatable=0;whiteSpace=wrap;html=1;" vertex="1" parent="cM0Dw6OtNcPGOJwDaQmD-93">
          <mxGeometry y="60" width="280" height="30" as="geometry" />
        </mxCell>
        <mxCell id="cM0Dw6OtNcPGOJwDaQmD-121" value="QRCodeGenerator" style="swimlane;fontStyle=0;childLayout=stackLayout;horizontal=1;startSize=30;horizontalStack=0;resizeParent=1;resizeParentMax=0;resizeLast=0;collapsible=1;marginBottom=0;whiteSpace=wrap;html=1;" vertex="1" parent="WIyWlLk6GJQsqaUBKTNV-1">
          <mxGeometry x="1160" y="40" width="280" height="98" as="geometry" />
        </mxCell>
        <mxCell id="cM0Dw6OtNcPGOJwDaQmD-122" value="&lt;u&gt;+ Prefix: string&lt;/u&gt;" style="text;strokeColor=none;fillColor=none;align=left;verticalAlign=middle;spacingLeft=4;spacingRight=4;overflow=hidden;points=[[0,0.5],[1,0.5]];portConstraint=eastwest;rotatable=0;whiteSpace=wrap;html=1;" vertex="1" parent="cM0Dw6OtNcPGOJwDaQmD-121">
          <mxGeometry y="30" width="280" height="30" as="geometry" />
        </mxCell>
        <mxCell id="cM0Dw6OtNcPGOJwDaQmD-124" value="" style="line;strokeWidth=1;fillColor=none;align=left;verticalAlign=middle;spacingTop=-1;spacingLeft=3;spacingRight=3;rotatable=0;labelPosition=right;points=[];portConstraint=eastwest;strokeColor=inherit;" vertex="1" parent="cM0Dw6OtNcPGOJwDaQmD-121">
          <mxGeometry y="60" width="280" height="8" as="geometry" />
        </mxCell>
        <mxCell id="cM0Dw6OtNcPGOJwDaQmD-125" value="&lt;u&gt;+ GenerateQR(string): string&lt;/u&gt;" style="text;strokeColor=none;fillColor=none;align=left;verticalAlign=middle;spacingLeft=4;spacingRight=4;overflow=hidden;points=[[0,0.5],[1,0.5]];portConstraint=eastwest;rotatable=0;whiteSpace=wrap;html=1;" vertex="1" parent="cM0Dw6OtNcPGOJwDaQmD-121">
          <mxGeometry y="68" width="280" height="30" as="geometry" />
        </mxCell>
        <mxCell id="cM0Dw6OtNcPGOJwDaQmD-141" style="edgeStyle=orthogonalEdgeStyle;rounded=0;orthogonalLoop=1;jettySize=auto;html=1;exitX=1;exitY=0.5;exitDx=0;exitDy=0;entryX=0;entryY=0.5;entryDx=0;entryDy=0;" edge="1" parent="WIyWlLk6GJQsqaUBKTNV-1" source="cM0Dw6OtNcPGOJwDaQmD-16" target="cM0Dw6OtNcPGOJwDaQmD-4">
          <mxGeometry relative="1" as="geometry" />
        </mxCell>
        <mxCell id="cM0Dw6OtNcPGOJwDaQmD-142" style="edgeStyle=orthogonalEdgeStyle;rounded=0;orthogonalLoop=1;jettySize=auto;html=1;exitX=1;exitY=0.5;exitDx=0;exitDy=0;entryX=0;entryY=0.5;entryDx=0;entryDy=0;" edge="1" parent="WIyWlLk6GJQsqaUBKTNV-1" source="cM0Dw6OtNcPGOJwDaQmD-4" target="cM0Dw6OtNcPGOJwDaQmD-11">
          <mxGeometry relative="1" as="geometry" />
        </mxCell>
        <mxCell id="cM0Dw6OtNcPGOJwDaQmD-158" style="edgeStyle=orthogonalEdgeStyle;rounded=0;orthogonalLoop=1;jettySize=auto;html=1;exitX=1;exitY=0.5;exitDx=0;exitDy=0;" edge="1" parent="WIyWlLk6GJQsqaUBKTNV-1" source="cM0Dw6OtNcPGOJwDaQmD-80" target="cM0Dw6OtNcPGOJwDaQmD-30">
          <mxGeometry relative="1" as="geometry">
            <Array as="points">
              <mxPoint x="1400" y="885" />
              <mxPoint x="1400" y="760" />
            </Array>
          </mxGeometry>
        </mxCell>
        <mxCell id="cM0Dw6OtNcPGOJwDaQmD-161" style="edgeStyle=orthogonalEdgeStyle;rounded=0;orthogonalLoop=1;jettySize=auto;html=1;entryX=1;entryY=0.5;entryDx=0;entryDy=0;" edge="1" parent="WIyWlLk6GJQsqaUBKTNV-1" source="cM0Dw6OtNcPGOJwDaQmD-22" target="cM0Dw6OtNcPGOJwDaQmD-94">
          <mxGeometry relative="1" as="geometry" />
        </mxCell>
      </root>
    </mxGraphModel>
  </diagram>
</mxfile>
